<svg width="2816" height="594" viewBox="0 0 2816 594" fill="none" xmlns="http://www.w3.org/2000/svg">
<path d="M158.566 -0.000283742V584.069H-3.05176e-05V-0.000283742H158.566ZM393.42 337.665V584.069H235.995V146.017H385.435V229.293H389.998C399.504 201.534 416.235 179.765 440.191 163.984C464.337 148.204 492.476 140.313 524.607 140.313C555.598 140.313 582.501 147.443 605.316 161.703C628.322 175.772 646.098 195.165 658.647 219.881C671.385 244.598 677.659 272.832 677.469 304.583V584.069H520.044V337.665C520.234 315.991 514.721 298.974 503.503 286.616C492.476 274.258 477.076 268.079 457.302 268.079C444.374 268.079 433.061 270.93 423.365 276.634C413.859 282.148 406.539 290.133 401.405 300.59C396.272 310.857 393.61 323.215 393.42 337.665ZM1155.59 288.612H1010.71C1009.95 279.676 1006.82 271.976 1001.3 265.512C995.789 259.048 988.659 254.104 979.914 250.682C971.358 247.07 961.852 245.263 951.395 245.263C937.896 245.263 926.298 247.735 916.601 252.678C906.905 257.622 902.152 264.656 902.342 273.782C902.152 280.247 904.909 286.236 910.612 291.749C916.506 297.263 927.819 301.541 944.55 304.583L1033.53 320.554C1078.4 328.729 1111.77 342.513 1133.63 361.906C1155.69 381.109 1166.81 406.871 1167 439.193C1166.81 470.373 1157.49 497.467 1139.05 520.472C1120.8 543.287 1095.8 560.969 1064.04 573.517C1032.48 585.876 996.455 592.055 955.958 592.055C889.033 592.055 836.653 578.366 798.818 550.987C761.173 523.609 740.164 487.485 735.791 442.615H892.075C894.166 456.494 901.011 467.236 912.609 474.841C924.397 482.256 939.226 485.964 957.098 485.964C971.548 485.964 983.431 483.492 992.747 478.549C1002.25 473.606 1007.1 466.571 1007.29 457.445C1007.1 449.079 1002.92 442.425 994.744 437.482C986.758 432.538 974.21 428.546 957.098 425.504L879.527 411.814C834.847 404.019 801.385 389.189 779.14 367.325C756.895 345.46 745.867 317.321 746.058 282.908C745.867 252.488 753.853 226.726 770.014 205.622C786.365 184.328 809.655 168.167 839.885 157.14C870.306 145.922 906.335 140.313 947.972 140.313C1011.28 140.313 1061.19 153.432 1097.7 179.67C1134.39 205.907 1153.69 242.221 1155.59 288.612ZM1488.55 146.017V260.093H1199.94V146.017H1488.55ZM1255.84 41.0671H1413.26V443.185C1413.26 449.269 1414.31 454.403 1416.4 458.586C1418.49 462.578 1421.72 465.62 1426.09 467.712C1430.47 469.613 1436.08 470.564 1442.92 470.564C1447.67 470.564 1453.19 469.993 1459.46 468.852C1465.93 467.712 1470.68 466.761 1473.72 466.001L1496.54 576.654C1489.5 578.746 1479.42 581.312 1466.31 584.355C1453.38 587.397 1437.98 589.393 1420.1 590.344C1383.98 592.245 1353.66 588.537 1329.13 579.221C1304.6 569.715 1286.16 554.79 1273.8 534.446C1261.44 514.103 1255.45 488.626 1255.84 458.015V41.0671ZM1674.85 590.914C1646.9 590.914 1622.19 586.351 1600.7 577.225C1579.41 567.909 1562.68 553.839 1550.51 535.017C1538.34 516.194 1532.26 492.238 1532.26 463.149C1532.26 439.193 1536.34 418.754 1544.52 401.833C1552.69 384.721 1564.1 370.747 1578.74 359.91C1593.38 349.073 1610.4 340.802 1629.79 335.098C1649.37 329.394 1670.48 325.687 1693.1 323.976C1717.63 322.075 1737.31 319.793 1752.14 317.131C1767.16 314.279 1777.99 310.382 1784.65 305.438C1791.3 300.305 1794.63 293.556 1794.63 285.19V284.049C1794.63 272.642 1790.26 263.896 1781.51 257.812C1772.77 251.728 1761.55 248.686 1747.86 248.686C1732.84 248.686 1720.58 252.013 1711.07 258.667C1701.75 265.132 1696.15 275.113 1694.24 288.612H1549.37C1551.27 261.994 1559.73 237.468 1574.75 215.033C1589.96 192.408 1612.11 174.346 1641.2 160.847C1670.29 147.158 1706.6 140.313 1750.14 140.313C1781.51 140.313 1809.65 144.021 1834.56 151.436C1859.46 158.661 1880.66 168.832 1898.15 181.951C1915.65 194.88 1928.96 210.09 1938.08 227.582C1947.4 244.883 1952.06 263.706 1952.06 284.049V584.069H1804.9V522.468H1801.48C1792.73 538.819 1782.08 552.033 1769.53 562.11C1757.18 572.186 1743.01 579.506 1727.04 584.069C1711.26 588.632 1693.86 590.914 1674.85 590.914ZM1726.19 491.668C1738.16 491.668 1749.38 489.196 1759.84 484.253C1770.48 479.309 1779.14 472.18 1785.79 462.863C1792.44 453.547 1795.77 442.235 1795.77 428.926V392.421C1791.59 394.133 1787.12 395.749 1782.37 397.27C1777.8 398.791 1772.86 400.217 1767.54 401.548C1762.4 402.878 1756.89 404.114 1751 405.255C1745.29 406.396 1739.3 407.442 1733.03 408.392C1720.86 410.293 1710.88 413.431 1703.08 417.803C1695.48 421.986 1689.78 427.215 1685.97 433.489C1682.36 439.573 1680.55 446.418 1680.55 454.023C1680.55 466.191 1684.83 475.507 1693.39 481.971C1701.94 488.436 1712.88 491.668 1726.19 491.668Z" fill="white"/>
<path d="M2184.7 337.665V584.069H2027.27V146.017H2176.71V229.293H2181.28C2190.78 201.534 2207.52 179.765 2231.47 163.984C2255.62 148.204 2283.76 140.313 2315.89 140.313C2346.88 140.313 2373.78 147.443 2396.6 161.703C2419.6 175.772 2437.38 195.165 2449.93 219.881C2462.67 244.598 2468.94 272.832 2468.75 304.583V584.069H2311.32V337.665C2311.51 315.991 2306 298.974 2294.78 286.616C2283.76 274.258 2268.36 268.079 2248.58 268.079C2235.65 268.079 2224.34 270.93 2214.64 276.634C2205.14 282.148 2197.82 290.133 2192.69 300.59C2187.55 310.857 2184.89 323.215 2184.7 337.665ZM2807.7 146.017V260.093H2519.09V146.017H2807.7ZM2574.98 41.0671H2732.41V443.185C2732.41 449.269 2733.45 454.403 2735.54 458.586C2737.64 462.578 2740.87 465.62 2745.24 467.712C2749.61 469.613 2755.22 470.564 2762.07 470.564C2766.82 470.564 2772.33 469.993 2778.61 468.852C2785.07 467.712 2789.83 466.761 2792.87 466.001L2815.68 576.654C2808.65 578.746 2798.57 581.312 2785.45 584.355C2772.52 587.397 2757.12 589.393 2739.25 590.344C2703.13 592.245 2672.8 588.537 2648.28 579.221C2623.75 569.715 2605.31 554.79 2592.95 534.446C2580.59 514.103 2574.6 488.626 2574.98 458.015V41.0671Z" fill="#FFA31A"/>
</svg>
